:SAMPLES-PER-SECOND 30
:FULLY-SPECIFIED
:DEGREES
435
root  -24.3177 38.031 -11.7515 163.376 -58.4162 -167.427
RightUpLeg  16.1434 -18.9643 -0.0404777
RightLeg  23.1607 -3.96444 -1.90461
RightFoot  -24.0298 0.135807 2.61678
RightToes  0.00048216 0.542163 -0.142577
Spine  11.0271 1.34619 11.9167
Spine1  13.3688 4.85125 -7.25073
HEad  9.64518 8.29626 -6.43981
LeftShoulder1  8.10614 -12.792 -43.2654
LeftArm  -13.1656 17.4326 -21.6281
LeftForeArm  52.9924 -78.2353 -64.0475
LeftHand  -0.25398 0.0180481 5.50724
RightShoulder  5.39669 9.89003 34.3403
RightArm  -5.03877 -18.7418 23.5046
RightForeArm  8.13747 77.1129 73.6479
RightHand  1.08102 -14.3685 -14.6749
LeftUpLeg  -19.7505 7.02264 6.17596
LeftLeg  -9.89067 39.0207 -11.9031
LeftFoot  -3.96341 -0.20005 2.86435
LeftToes  1.06244e-005 4.65856e-005 -8.18505e-006
436
root  -25.7681 37.6487 -12.7209 166.129 -60.0584 -169.782
RightUpLeg  17.1135 -18.2077 -1.82724
RightLeg  25.9076 -3.6724 -2.18458
RightFoot  -25.0662 0.758613 7.72557
RightToes  0.00048216 0.542163 -0.142577
Spine  11.5149 1.7746 7.71708
Spine1  13.1193 4.56726 -5.75904
HEad  9.52939 8.08124 -5.82876
LeftShoulder1  8.17774 -12.9242 -43.298
LeftArm  -12.639 16.7507 -21.1973
LeftForeArm  49.4513 -77.8574 -60.5349
LeftHand  -0.25398 0.0180481 5.50724
RightShoulder  5.4733 9.98978 34.6068
RightArm  -4.9543 -18.5848 23.5141
RightForeArm  4.87566 76.8808 70.4428
RightHand  1.08478 -14.3531 -14.7444
LeftUpLeg  -22.0369 7.0541 4.21287
LeftLeg  -4.76657 36.7786 -9.90157
LeftFoot  4.08251 -1.49362 10.5737
LeftToes  1.06244e-005 4.65856e-005 -8.18505e-006
437
root  -27.0907 37.323 -13.6364 170.013 -62.5486 -173.326
RightUpLeg  15.6099 -17.8085 -4.0403
RightLeg  32.8452 -3.40272 -2.62831
RightFoot  -22.4975 1.18099 13.9763
RightToes  0.00048216 0.542163 -0.142577
Spine  13.2184 2.0375 2.83381
Spine1  12.1397 3.7103 -3.98076
HEad  8.41604 7.65974 -5.13717
LeftShoulder1  8.37182 -13.185 -43.6521
LeftArm  -12.2215 14.7138 -20.2682
LeftForeArm  42.1831 -76.8436 -53.3922
LeftHand  -0.25398 0.0180481 5.50724
RightShoulder  5.60366 10.101 35.2227
RightArm  -5.62448 -17.7665 24.0512
RightForeArm  -1.15718 76.2084 63.3955
RightHand  0.993208 -14.022 -14.1027
LeftUpLeg  -26.36 10.7461 -0.307967
LeftLeg  4.53311 27.5165 -5.27661
LeftFoot  12.4434 -3.54598 16.5146
LeftToes  1.06244e-005 4.65856e-005 -8.18505e-006
438
root  -28.2477 37.182 -14.363 173.367 -65.3362 -176.69
RightUpLeg  10.3222 -18.0873 -5.85207
RightLeg  45.1968 -3.79108 -4.48703
RightFoot  -12.5906 0.160825 14.9859
RightToes  0.00048216 0.542163 -0.142577
Spine  17.1394 1.68904 -0.118598
Spine1  10.5689 2.64458 -3.41828
HEad  6.25221 6.92848 -4.83529
LeftShoulder1  8.685 -13.6615 -44.049
LeftArm  -11.934 11.1224 -19.253
LeftForeArm  31.9142 -74.6901 -43.4307
LeftHand  -0.25398 0.0180481 5.50724
RightShoulder  5.79483 10.3602 35.8193
RightArm  -7.08074 -15.9082 25.0057
RightForeArm  -8.15426 74.9107 54.3164
RightHand  0.842551 -13.5464 -12.835
LeftUpLeg  -30.9662 21.4431 -9.94802
LeftLeg  12.4274 11.1601 0.163348
LeftFoot  14.7953 -4.42148 18.5257
LeftToes  1.06244e-005 4.65856e-005 -8.18505e-006
439
root  -29.0785 37.1796 -14.8157 176.253 -67.0242 -179.677
RightUpLeg  1.06398 -17.386 -6.44783
RightLeg  59.0046 -3.83869 -7.30349
RightFoot  1.78936 -1.00261 8.99028
RightToes  0.00048216 0.542163 -0.142577
Spine  22.7811 1.17148 -1.05423
Spine1  9.70369 2.21845 -4.63048
HEad  3.18539 6.00644 -5.36158
LeftShoulder1  9.08007 -14.4426 -44.05
LeftArm  -11.7587 6.34349 -18.9593
LeftForeArm  22.1767 -71.3053 -33.8879
LeftHand  -0.25398 0.0180481 5.50724
RightShoulder  5.96226 10.7737 35.7839
RightArm  -8.86531 -12.6906 25.9011
RightForeArm  -14.633 73.004 45.6613
RightHand  0.704243 -13.0513 -11.6079
LeftUpLeg  -33.039 24.8052 -14.618
LeftLeg  16.6247 6.25246 2.40871
LeftFoot  12.0495 -4.01975 18.8711
LeftToes  1.06244e-005 4.65856e-005 -8.18505e-006
440
root  -29.6529 37.2019 -15.1295 178.568 -67.3867 178.32
RightUpLeg  -9.15137 -15.771 -6.10292
RightLeg  68.8279 -2.59861 -8.09361
RightFoot  9.87667 -0.556379 3.09773
RightToes  0.00048216 0.542163 -0.142577
Spine  28.376 0.966088 -1.33115
Spine1  9.81605 2.36959 -6.18236
HEad  -0.421726 5.25833 -6.47222
LeftShoulder1  9.40321 -15.3283 -43.4379
LeftArm  -11.6883 0.821037 -19.6337
LeftForeArm  14.8501 -67.0307 -26.4941
LeftHand  -0.25398 0.0180481 5.50724
RightShoulder  5.98081 11.162 34.8195
RightArm  -10.3926 -7.8175 26.5867
RightForeArm  -21.3249 70.204 37.4492
RightHand  0.584733 -12.4026 -10.7062
LeftUpLeg  -33.7035 25.4738 -15.5627
LeftLeg  19.19 5.54808 2.50042
LeftFoot  9.1425 -3.43684 18.5389
LeftToes  1.06244e-005 4.65856e-005 -8.18505e-006
441
root  -30.2638 37.4507 -15.492 178.985 -67.7976 178.95
RightUpLeg  -18.1319 -15.2321 -5.09449
RightLeg  73.0012 -1.5748 -6.87386
RightFoot  9.44494 -0.236829 1.66445
RightToes  0.00048216 0.542163 -0.142577
Spine  32.8187 0.59392 -0.887459
Spine1  10.0868 2.21896 -6.62305
HEad  -4.08107 4.94142 -7.37647
LeftShoulder1  9.50755 -16.0373 -42.2499
LeftArm  -11.868 -5.06227 -20.9255
LeftForeArm  9.54647 -62.134 -21.0261
LeftHand  -0.25398 0.0180481 5.50724
RightShoulder  5.85047 11.3949 33.3193
RightArm  -11.3896 -1.29824 27.1675
RightForeArm  -28.1083 65.8873 29.4227
RightHand  0.445325 -11.5951 -9.48644
LeftUpLeg  -34.0771 26.604 -15.5876
LeftLeg  19.8671 3.35935 1.68178
LeftFoot  8.5255 -3.19547 17.7994
LeftToes  1.06244e-005 4.65856e-005 -8.18505e-006
442
root  -30.8883 37.821 -15.8912 178.433 -68.9137 -179.022
RightUpLeg  -25.6649 -16.1218 -3.87202
RightLeg  71.8909 -1.35452 -5.62317
RightFoot  6.34371 -0.498838 3.49084
RightToes  0.00048216 0.542163 -0.142577
Spine  36.564 -0.138208 -0.128794
Spine1  10.4146 1.52096 -6.29368
HEad  -7.47084 4.81655 -7.64074
LeftShoulder1  9.41107 -16.627 -40.4627
LeftArm  -12.6274 -10.9966 -22.813
LeftForeArm  5.68736 -56.6306 -16.8154
LeftHand  -0.25398 0.0180481 5.50724
RightShoulder  5.69752 11.5359 31.9344
RightArm  -11.9685 6.39254 27.4289
RightForeArm  -33.3546 59.9102 22.468
RightHand  0.280057 -10.8984 -7.26104
LeftUpLeg  -34.1247 26.8003 -15.0286
LeftLeg  19.5534 1.89756 1.07917
LeftFoot  8.49414 -3.03849 16.9457
LeftToes  1.06244e-005 4.65856e-005 -8.18505e-006
443
root  -31.4562 38.1488 -16.3017 177.639 -70.2034 -176.746
RightUpLeg  -31.6988 -17.0671 -2.46069
RightLeg  66.4735 -2.11825 -5.94476
RightFoot  4.69333 -0.648522 4.81069
RightToes  0.00048216 0.542163 -0.142577
Spine  40.0352 -0.875049 0.581053
Spine1  11.1065 0.911 -5.93719
HEad  -10.5555 4.35936 -7.5593
LeftShoulder1  9.27723 -17.3476 -38.3082
LeftArm  -13.9758 -17.0919 -25.1571
LeftForeArm  2.96882 -50.3672 -13.3729
LeftHand  -0.25398 0.0180481 5.50724
RightShoulder  5.58496 11.679 30.826
RightArm  -12.4043 14.4634 26.9797
RightForeArm  -36.5139 52.9344 17.2594
RightHand  0.121752 -10.3252 -4.41919
LeftUpLeg  -34.0403 26.3886 -14.3351
LeftLeg  19.0997 1.28867 0.827172
LeftFoot  7.82737 -2.83536 16.3885
LeftToes  1.06244e-005 4.65856e-005 -8.18505e-006
444
root  -31.9909 38.4142 -16.7548 176.904 -71.2907 -174.462
RightUpLeg  -35.878 -17.3041 -0.946759
RightLeg  56.8985 -3.99099 -6.96899
RightFoot  4.31466 -0.571516 4.37244
RightToes  0.00048216 0.542163 -0.142577
Spine  43.233 -1.34909 1.25303
Spine1  11.69 0.658084 -5.6177
HEad  -13.3342 3.44739 -7.49982
LeftShoulder1  9.33381 -18.2084 -36.8424
LeftArm  -15.2056 -23.6966 -26.5426
LeftForeArm  0.558244 -43.1958 -10.4773
LeftHand  -0.25398 0.0180481 5.50724
RightShoulder  5.47514 11.8348 29.7188
RightArm  -12.8519 22.0555 25.9328
RightForeArm  -38.6454 45.8135 13.6152
RightHand  0.00989204 -9.50561 -2.10229
LeftUpLeg  -34.2956 26.0637 -13.7156
LeftLeg  18.8436 0.383431 0.475754
LeftFoot  7.36678 -2.7147 16.094
LeftToes  1.06244e-005 4.65856e-005 -8.18505e-006
445
root  -32.5454 38.6004 -17.2961 177.461 -72.7197 -173.15
RightUpLeg  -38.3187 -17.6628 0.133898
RightLeg  43.4812 -5.54705 -5.97917
RightFoot  4.66705 -0.637202 4.74374
RightToes  0.00048216 0.542163 -0.142577
Spine  46.2132 -1.79408 1.67983
Spine1  11.4268 0.314788 -5.26993
HEad  -15.7738 2.40437 -7.35534
LeftShoulder1  9.68523 -19.0693 -36.7495
LeftArm  -15.8437 -30.582 -25.9887
LeftForeArm  -2.1889 -35.4695 -8.11869
LeftHand  -0.25398 0.0180481 5.50724
RightShoulder  5.37162 12.0605 28.5088
RightArm  -13.4699 28.5872 24.784
RightForeArm  -40.5796 39.0786 11.0508
RightHand  -0.0408001 -8.39373 -0.732307
LeftUpLeg  -35.3843 25.5218 -13.594
LeftLeg  19.2519 -0.788849 0.0232746
LeftFoot  7.22771 -2.63198 15.7227
LeftToes  1.06244e-005 4.65856e-005 -8.18505e-006
446
root  -33.1668 38.6673 -17.9541 -179.79 -74.8834 -173.766
RightUpLeg  -39.7211 -19.2747 0.961839
RightLeg  28.644 -3.69747 -2.68486
RightFoot  5.05134 -0.964495 6.94404
RightToes  0.00048216 0.542163 -0.142577
Spine  48.5826 -2.32765 1.71869
Spine1  11.1964 -0.308193 -4.70768
HEad  -18.2819 1.26128 -6.95799
LeftShoulder1  10.0447 -20.0098 -36.563
LeftArm  -17.0011 -37.0607 -25.3279
LeftForeArm  -4.08817 -28.3112 -6.31654
LeftHand  -0.25398 0.0180481 5.50724
RightShoulder  5.28599 12.4488 27.0899
RightArm  -14.9564 34.1736 23.4843
RightForeArm  -41.9553 32.9205 9.15665
RightHand  -0.0639829 -7.42451 0.529306
LeftUpLeg  -37.1788 24.2827 -14.0165
LeftLeg  20.6936 -1.60907 -0.339117
LeftFoot  6.38594 -2.42884 15.2252
LeftToes  1.06244e-005 4.65856e-005 -8.18505e-006
447
root  -33.8205 38.5812 -18.7348 -175.064 -77.4666 -176.471
RightUpLeg  -40.0467 -19.8937 0.180157
RightLeg  16.2943 -0.530354 0.554402
RightFoot  4.33479 -1.36445 10.115
RightToes  0.00048216 0.542163 -0.142577
Spine  50.005 -2.55284 1.41546
Spine1  12.3166 -0.868584 -3.44293
HEad  -21.2941 -0.312931 -6.46568
LeftShoulder1  9.96693 -21.1698 -34.2676
LeftArm  -20.04 -42.7412 -26.7969
LeftForeArm  -3.48782 -22.6855 -5.08411
LeftHand  -0.25398 0.0180481 5.50724
RightShoulder  5.12561 12.8768 25.1639
RightArm  -17.8599 39.0657 21.3498
RightForeArm  -42.4077 27.4979 7.69585
RightHand  -0.0831303 -6.83216 2.43706
LeftUpLeg  -39.3413 22.4784 -14.4639
LeftLeg  23.3465 -2.1779 -0.694073
LeftFoot  4.72782 -2.13197 14.8104
LeftToes  1.06244e-005 4.65856e-005 -8.18505e-006
